<?xml version="1.0" encoding="utf-8"?>
<!-- Generator: Adobe Illustrator 16.0.0, SVG Export Plug-In . SVG Version: 6.00 Build 0)  -->
<!DOCTYPE svg PUBLIC "-//W3C//DTD SVG 1.1//EN" "http://www.w3.org/Graphics/SVG/1.1/DTD/svg11.dtd">
<svg version="1.1" id="Calque_1" xmlns="http://www.w3.org/2000/svg" xmlns:xlink="http://www.w3.org/1999/xlink" x="0px" y="0px"
	 width="500px" height="500px" viewBox="0 0 500 500" enable-background="new 0 0 500 500" xml:space="preserve">
<g>
	<g>
		<path fill="#252C3C" d="M250,0C111.928,0,0,111.93,0,250c0,138.074,111.928,250,250,250c138.07,0,250-111.926,250-250
			C500,111.93,388.07,0,250,0z M249.999,339.287c-49.312,0-89.285-39.977-89.285-89.288c0-49.312,39.974-89.286,89.285-89.286
			c49.312,0,89.286,39.974,89.286,89.286C339.285,299.311,299.312,339.287,249.999,339.287z"/>
	</g>
	<g>
		<g>
			<path fill="#D89937" d="M426.904,72.354c-0.03-0.03-0.061-0.061-0.091-0.091L426.904,72.354L426.904,72.354z"/>
		</g>
		<g>
			<path fill="#D89937" d="M426.904,72.354l0.093,0.092C426.967,72.416,426.936,72.384,426.904,72.354L426.904,72.354z"/>
		</g>
		<g>
			<polygon fill="#D89937" points="73.341,425.896 73.352,425.907 73.352,425.907 			"/>
		</g>
		<g>
			<polygon fill="#D89937" points="73.352,425.907 73.363,425.918 73.352,425.907 			"/>
		</g>
	</g>
</g>
<g>
	<g>
		<g>
			<g>
				<g>
					<path fill="#2C3B49" d="M44.643,258.929c-4.931,0-8.929-3.998-8.929-8.929c0-118.158,96.128-214.286,214.286-214.286
						c4.931,0,8.929,3.998,8.929,8.928c0,4.931-3.998,8.929-8.929,8.929C141.689,53.571,53.571,141.688,53.571,250
						C53.571,254.931,49.574,258.929,44.643,258.929z"/>
				</g>
				<g>
					<path fill="#2C3B49" d="M78.871,258.929c-4.931,0-8.929-3.998-8.929-8.929c0-99.287,80.773-180.062,180.058-180.062
						c4.931,0,8.929,3.998,8.929,8.929s-3.998,8.929-8.929,8.929C160.562,87.795,87.799,160.56,87.799,250
						C87.799,254.931,83.801,258.929,78.871,258.929z"/>
				</g>
				<g>
					<path fill="#2C3B49" d="M250,464.286c-4.931,0-8.929-3.998-8.929-8.929s3.998-8.929,8.929-8.929
						c108.312,0,196.429-88.117,196.429-196.429c0-4.931,3.998-8.929,8.929-8.929s8.929,3.998,8.929,8.929
						C464.286,368.157,368.157,464.286,250,464.286z"/>
				</g>
				<g>
					<path fill="#2C3B49" d="M250,430.061c-4.931,0-8.929-3.998-8.929-8.929s3.998-8.929,8.929-8.929
						c89.438,0,162.201-72.765,162.201-162.203c0-4.931,3.998-8.929,8.929-8.929s8.929,3.998,8.929,8.929
						C430.059,349.284,349.284,430.061,250,430.061z"/>
				</g>
				<g>
					<path fill="#2C3B49" d="M250,395.833c-4.931,0-8.929-3.998-8.929-8.929s3.998-8.929,8.929-8.929
						c70.567,0,127.978-57.41,127.978-127.976c0-4.931,3.998-8.929,8.929-8.929s8.929,3.998,8.929,8.929
						C395.835,330.412,330.414,395.833,250,395.833z"/>
				</g>
				<g>
					<path fill="#2C3B49" d="M113.094,258.929c-4.931,0-8.929-3.998-8.929-8.929c0-80.414,65.421-145.835,145.835-145.835
						c4.931,0,8.929,3.998,8.929,8.929s-3.998,8.929-8.929,8.929c-70.567,0-127.978,57.41-127.978,127.978
						C122.022,254.931,118.024,258.929,113.094,258.929z"/>
				</g>
			</g>
		</g>
	</g>
	<g>
		<g>
			<polygon fill="#D89937" points="73.212,426.767 73.223,426.777 73.223,426.777 			"/>
		</g>
		<g>
			<path fill="#D89937" d="M426.775,73.225c-0.03-0.03-0.062-0.061-0.092-0.091L426.775,73.225L426.775,73.225z"/>
		</g>
		<g>
			<path fill="#D89937" d="M426.775,73.225l0.092,0.092C426.836,73.286,426.806,73.255,426.775,73.225L426.775,73.225z"/>
		</g>
		<g>
			<polygon fill="#D89937" points="73.223,426.777 73.233,426.788 73.223,426.777 			"/>
		</g>
	</g>
</g>
<g>
	<circle fill="#252C3C" cx="250" cy="250.001" r="12.081"/>
</g>
</svg>
