<?xml version="1.0" encoding="utf-8"?>
<!-- Generator: Adobe Illustrator 18.0.0, SVG Export Plug-In . SVG Version: 6.00 Build 0)  -->
<!DOCTYPE svg PUBLIC "-//W3C//DTD SVG 1.1//EN" "http://www.w3.org/Graphics/SVG/1.1/DTD/svg11.dtd">
<svg version="1.1" id="Layer_1" xmlns="http://www.w3.org/2000/svg" xmlns:xlink="http://www.w3.org/1999/xlink" x="0px" y="0px"
	 viewBox="0 0 459 308.6" enable-background="new 0 0 459 308.6" xml:space="preserve">
<rect x="-1058.6" y="-79" width="800" height="420"/>
<g>
	<g>
		<g>
			<path fill="#FFFFFF" d="M-587.8,242.8c-0.9-2.1-2.2-3.9-3.7-5.5c-3.3-3.4-7.8-5.5-12.9-5.5c-5,0-9.6,2.1-12.9,5.5
				c-3.3,3.4-5.3,8-5.3,13.1c0,5.1,2.1,9.7,5.3,13.1c3.3,3.4,7.8,5.5,12.9,5.5c5,0,9.6-2.1,12.9-5.5c1.5-1.6,2.8-3.3,3.7-5.4h0.9
				c-0.9,2.3-2.3,4.3-4,6.1c-3.5,3.6-8.2,5.7-13.5,5.7c-5.3,0-10-2.2-13.5-5.7c-3.4-3.5-5.6-8.4-5.6-13.8c0-5.3,2.2-10.2,5.6-13.7
				c3.5-3.6,8.2-5.7,13.5-5.7c5.3,0,10,2.2,13.5,5.7c1.7,1.7,3.1,3.8,4,6.1H-587.8z"/>
			<path fill="#FFFFFF" d="M-604.3,271.1c-5.4,0-10.5-2.2-14.4-6.1c-3.8-3.9-5.9-9.1-5.9-14.6c0-5.4,2.1-10.6,5.9-14.6
				c3.8-3.9,8.9-6.1,14.4-6.1c5.4,0,10.5,2.2,14.4,6.1c1.8,1.9,3.3,4.1,4.3,6.5l0.7,1.7h-3.6l-0.3-0.8c-0.8-1.8-2-3.6-3.4-5.1
				c-3.2-3.3-7.4-5.1-12-5.1s-8.8,1.8-12,5.1c-3.2,3.3-5,7.7-5,12.2c0,4.6,1.8,8.9,5,12.2c3.2,3.3,7.5,5.1,12,5.1s8.8-1.8,12-5.1
				c1.5-1.6,2.7-3.3,3.4-5l0.3-0.8h3.6l-0.7,1.7c-1,2.4-2.4,4.6-4.3,6.5C-593.7,269-598.8,271.1-604.3,271.1z"/>
		</g>
		<g>
			<path fill="#FFFFFF" d="M-573.8,236.2c3.6-3.7,8.6-5.9,14-5.9c5.5,0,10.5,2.2,14.1,5.9c3.6,3.6,5.8,8.6,5.8,14.1
				c0,5.5-2.3,10.5-5.8,14.1c-3.6,3.7-8.6,5.9-14.1,5.9c-5.5,0-10.5-2.2-14-5.9c-3.6-3.6-5.8-8.6-5.8-14.1
				C-579.7,244.8-577.4,239.8-573.8,236.2z M-546.3,236.9c-3.5-3.5-8.2-5.7-13.5-5.7c-5.2,0-10,2.2-13.4,5.7
				c-3.4,3.5-5.6,8.2-5.6,13.5s2.2,10,5.6,13.5c3.5,3.5,8.2,5.7,13.4,5.7c5.2,0,10-2.2,13.5-5.7c3.4-3.4,5.5-8.2,5.5-13.5
				S-542.9,240.3-546.3,236.9z"/>
			<path fill="#FFFFFF" d="M-559.8,271.6c-5.6,0-11.1-2.3-14.9-6.3c-4-4.1-6.2-9.4-6.2-15c0-5.6,2.2-11,6.2-15
				c3.9-4,9.3-6.3,14.9-6.3c5.7,0,11,2.2,15,6.3c4,4.1,6.2,9.4,6.2,15c0,5.6-2.2,11-6.2,15C-548.8,269.4-554.1,271.6-559.8,271.6z
				 M-559.8,232.4c-4.7,0-9.2,1.9-12.5,5.3c-3.4,3.4-5.2,7.9-5.2,12.6c0,4.7,1.8,9.2,5.2,12.6c3.4,3.4,7.8,5.3,12.5,5.3
				c4.7,0,9.2-1.9,12.6-5.3c3.3-3.4,5.2-7.8,5.2-12.6c0-4.7-1.8-9.2-5.2-12.6C-550.6,234.3-555.1,232.4-559.8,232.4z"/>
		</g>
		<g>
			<path fill="#FFFFFF" d="M-518.5,230.9c25.5,0,25.5,38.9,0,38.9h-13.1c0-13,0-25.9,0-38.9H-518.5z M-518.5,269
				c24.4,0,24.4-37.2,0-37.2h-12.3c0,12.1,0,25.2,0,37.2H-518.5z"/>
			<path fill="#FFFFFF" d="M-518.5,271.1h-14.4v-41.4h14.4c6.3,0,11.6,2.2,15.3,6.5c3.3,3.8,5.1,8.8,5.1,14.2
				c0,5.4-1.8,10.4-5.1,14.2C-506.9,268.8-512.2,271.1-518.5,271.1z M-529.6,267.7h11c5.3,0,9.7-1.9,12.8-5.4
				c2.8-3.1,4.3-7.4,4.3-12c0-8.4-5.3-17.4-17.1-17.4h-11V267.7z"/>
		</g>
		<g>
			<path fill="#FFFFFF" d="M-490,269h20.7v0.8h-21.5h-0.1v-38.9h21.5v0.8H-490v18.1h20.1v0.9H-490V269z"/>
			<polygon fill="#FFFFFF" points="-468,271.1 -492.1,271.1 -492.1,229.7 -468.2,229.7 -468.2,233 -488.7,233 -488.7,248.6 
				-468.6,248.6 -468.6,252 -488.7,252 -488.7,267.7 -468,267.7 			"/>
		</g>
	</g>
	<g>
		<path fill="#FFFFFF" d="M-844.5,230.9v38.9h-5.6v-38.9H-844.5z M-843.4,248.9l13.6-18h7.1l-14.9,19.3l16.4,19.6h-7.3l-14.9-18
			V248.9z"/>
		<path fill="#FFFFFF" d="M-810.4,250.1h6.6c4.7,0,7.1-3.4,7.1-6.8c0-3.3-2.3-6.7-7.1-6.7h-8.6v33.3h-5.6v-39h14.2
			c8.5,0,12.7,6.2,12.7,12.4c0,5.5-3.4,10.7-10.1,11.9l12.3,14.6h-7.3l-14.2-17.1V250.1z"/>
		<path fill="#FFFFFF" d="M-781.2,236.3c3.6-3.6,8.6-5.9,14-5.9c5.5,0,10.5,2.3,14.1,5.9c3.5,3.6,5.8,8.6,5.8,14.1
			c0,5.5-2.3,10.5-5.8,14.1c-3.6,3.7-8.6,5.9-14.1,5.9c-5.5,0-10.5-2.2-14-5.9c-3.5-3.6-5.8-8.6-5.8-14.1
			C-787,244.8-784.7,239.9-781.2,236.3z M-757.1,240.3c-2.6-2.6-6.2-4.2-10.1-4.2c-3.8,0-7.4,1.6-10,4.2c-2.6,2.6-4.2,6.1-4.2,10.1
			c0,4,1.6,7.5,4.2,10.1c2.6,2.6,6.1,4.2,10,4.2c3.8,0,7.5-1.6,10.1-4.2c2.5-2.6,4.1-6.1,4.1-10.1
			C-753,246.3-754.6,242.8-757.1,240.3z"/>
		<path fill="#FFFFFF" d="M-741,269.8v-39l4.3,0.1l19,27.4v-27.4h5.6v39h-4.5l-18.8-27.2v27.2H-741z"/>
		<path fill="#FFFFFF" d="M-700.7,236.3c3.6-3.6,8.6-5.9,14-5.9c5.5,0,10.5,2.3,14.1,5.9c3.5,3.6,5.8,8.6,5.8,14.1
			c0,5.5-2.3,10.5-5.8,14.1c-3.6,3.7-8.6,5.9-14.1,5.9c-5.5,0-10.5-2.2-14-5.9c-3.5-3.6-5.8-8.6-5.8-14.1
			C-706.5,244.8-704.2,239.9-700.7,236.3z M-676.6,240.3c-2.6-2.6-6.2-4.2-10.1-4.2c-3.8,0-7.4,1.6-10,4.2
			c-2.6,2.6-4.2,6.1-4.2,10.1c0,4,1.6,7.5,4.2,10.1c2.6,2.6,6.1,4.2,10,4.2c3.8,0,7.5-1.6,10.1-4.2c2.5-2.6,4.1-6.1,4.1-10.1
			C-672.5,246.3-674.1,242.8-676.6,240.3z"/>
		<path fill="#FFFFFF" d="M-639.2,240.9c-0.8-3.5-4.6-5-8-5c-2.6,0.1-5.5,0.9-7.1,2.9c-0.8,1-1.1,2.3-0.9,3.6c0.3,4,4.7,4.5,8.8,4.9
			c5.3,0.7,12,2.1,13.5,8.3c0.2,0.8,0.3,1.8,0.3,2.6c0,7.5-7.5,11.9-14.5,11.9c-6,0-13.3-3.6-14-10.5l-0.1-1.1l5.7-0.1l0.1,0.8v-0.2
			c0.4,3.6,4.8,5.5,8.4,5.5c4.2,0,8.7-2.3,8.7-6.3c0-0.4-0.1-0.8-0.2-1.3c-0.7-3-4.7-3.5-8.6-3.8c-6.1-0.6-13.2-1.9-13.8-10.1v0.1
			c-0.2-2.6,0.4-5.2,2.1-7.4c2.6-3.4,7.3-5.2,11.8-5.2c6,0,12.2,3.1,13.2,10.2L-639.2,240.9z"/>
	</g>
</g>
<g>
	<polygon fill="#FFFFFF" points="-611.8,45 -641.5,45 -699.9,98.2 -641.5,154 -611.8,154 -670.2,98.2 	"/>
	<g>
		<path fill="#FFFFFF" d="M-594.4,170.6c-8.4,5.9-18.6,9.4-29.7,9.4h-64c-28.4,0-51.5-23-51.5-51.4v-64c0-28.4,23.1-51.6,51.5-51.6
			h64c12.8,0,24.5,4.7,33.6,12.5l9.7-8.8C-592.3,6.3-607.5,0-624.1,0h-64c-35.6,0-64.5,29-64.5,64.6v64c0,35.6,28.9,64.4,64.5,64.4
			h64c14.7,0,28.3-5,39.2-13.3L-594.4,170.6z"/>
	</g>
</g>
<g>
	<g>
		<g>
			<path fill="#FFFFFF" d="M302.2,250.8c-0.9-2.1-2.2-3.9-3.7-5.5c-3.3-3.4-7.8-5.5-12.9-5.5s-9.6,2.1-12.9,5.5
				c-3.3,3.4-5.3,8-5.3,13.1c0,5.1,2.1,9.7,5.3,13.1c3.3,3.4,7.8,5.5,12.9,5.5s9.6-2.1,12.9-5.5c1.5-1.6,2.8-3.3,3.7-5.4h0.9
				c-0.9,2.3-2.3,4.3-4,6.1c-3.5,3.6-8.2,5.7-13.5,5.7c-5.3,0-10-2.2-13.5-5.7c-3.4-3.5-5.6-8.4-5.6-13.8c0-5.3,2.2-10.2,5.6-13.7
				c3.5-3.6,8.2-5.7,13.5-5.7c5.3,0,10,2.2,13.5,5.7c1.7,1.7,3.1,3.8,4,6.1H302.2z"/>
			<path fill="#FFFFFF" d="M285.7,279.1c-5.4,0-10.5-2.2-14.4-6.1c-3.8-3.9-5.9-9.1-5.9-14.6c0-5.4,2.1-10.6,5.9-14.6
				c3.8-3.9,8.9-6.1,14.4-6.1c5.4,0,10.5,2.2,14.4,6.1c1.8,1.9,3.3,4.1,4.3,6.5l0.7,1.7h-3.6l-0.3-0.8c-0.8-1.8-2-3.6-3.4-5.1
				c-3.2-3.3-7.4-5.1-12-5.1s-8.8,1.8-12,5.1c-3.2,3.3-5,7.7-5,12.2c0,4.6,1.8,8.9,5,12.2c3.2,3.3,7.5,5.1,12,5.1s8.8-1.8,12-5.1
				c1.5-1.6,2.7-3.3,3.4-5l0.3-0.8h3.6l-0.7,1.7c-1,2.4-2.4,4.6-4.3,6.5C296.3,277,291.2,279.1,285.7,279.1z"/>
		</g>
		<g>
			<path fill="#FFFFFF" d="M316.2,244.2c3.6-3.7,8.6-5.9,14-5.9c5.5,0,10.5,2.2,14.1,5.9c3.6,3.6,5.8,8.6,5.8,14.1
				c0,5.5-2.3,10.5-5.8,14.1c-3.6,3.7-8.6,5.9-14.1,5.9c-5.5,0-10.5-2.2-14-5.9c-3.6-3.6-5.8-8.6-5.8-14.1
				C310.3,252.8,312.6,247.8,316.2,244.2z M343.7,244.9c-3.5-3.5-8.2-5.7-13.5-5.7c-5.2,0-10,2.2-13.4,5.7
				c-3.4,3.5-5.6,8.2-5.6,13.5c0,5.3,2.2,10,5.6,13.5c3.5,3.5,8.2,5.7,13.4,5.7c5.2,0,10-2.2,13.5-5.7c3.4-3.4,5.5-8.2,5.5-13.5
				C349.2,253,347.1,248.3,343.7,244.9z"/>
			<path fill="#FFFFFF" d="M330.2,279.6c-5.6,0-11.1-2.3-14.9-6.3c-4-4.1-6.2-9.4-6.2-15c0-5.6,2.2-11,6.2-15
				c3.9-4,9.3-6.3,14.9-6.3c5.7,0,11,2.2,15,6.3c4,4.1,6.2,9.4,6.2,15c0,5.6-2.2,11-6.2,15C341.2,277.4,335.9,279.6,330.2,279.6z
				 M330.2,240.4c-4.7,0-9.2,1.9-12.5,5.3c-3.4,3.4-5.2,7.9-5.2,12.6c0,4.7,1.8,9.2,5.2,12.6c3.4,3.4,7.8,5.3,12.5,5.3
				c4.7,0,9.2-1.9,12.6-5.3c3.3-3.4,5.2-7.8,5.2-12.6c0-4.7-1.8-9.2-5.2-12.6C339.4,242.3,334.9,240.4,330.2,240.4z"/>
		</g>
		<g>
			<path fill="#FFFFFF" d="M371.5,238.9c25.5,0,25.5,38.9,0,38.9h-13.1c0-13,0-25.9,0-38.9H371.5z M371.5,277
				c24.4,0,24.4-37.2,0-37.2h-12.3c0,12.1,0,25.2,0,37.2H371.5z"/>
			<path fill="#FFFFFF" d="M371.5,279.1h-14.4v-41.4h14.4c6.3,0,11.6,2.2,15.3,6.5c3.3,3.8,5.1,8.8,5.1,14.2
				c0,5.4-1.8,10.4-5.1,14.2C383.1,276.8,377.8,279.1,371.5,279.1z M360.4,275.7h11c5.3,0,9.7-1.9,12.8-5.4c2.8-3.1,4.3-7.4,4.3-12
				c0-8.4-5.3-17.4-17.1-17.4h-11V275.7z"/>
		</g>
		<g>
			<path fill="#FFFFFF" d="M400,277h20.7v0.8h-21.5h-0.1v-38.9h21.5v0.8H400v18.1h20.1v0.9H400V277z"/>
			<polygon fill="#FFFFFF" points="422,279.1 397.9,279.1 397.9,237.7 421.8,237.7 421.8,241 401.3,241 401.3,256.6 421.4,256.6 
				421.4,260 401.3,260 401.3,275.7 422,275.7 			"/>
		</g>
	</g>
	<g>
		<path fill="#FFFFFF" d="M45.5,238.9v38.9H40v-38.9H45.5z M46.6,256.9l13.6-18h7.1l-14.9,19.3l16.4,19.6h-7.3l-14.9-18V256.9z"/>
		<path fill="#FFFFFF" d="M79.6,258.1h6.6c4.7,0,7.1-3.4,7.1-6.8c0-3.3-2.3-6.7-7.1-6.7h-8.6v33.3H72v-39h14.2
			c8.5,0,12.7,6.2,12.7,12.4c0,5.5-3.4,10.7-10.1,11.9l12.3,14.6h-7.3l-14.2-17.1V258.1z"/>
		<path fill="#FFFFFF" d="M108.8,244.3c3.6-3.6,8.6-5.9,14-5.9c5.5,0,10.5,2.3,14.1,5.9c3.5,3.6,5.8,8.6,5.8,14.1
			c0,5.5-2.3,10.5-5.8,14.1c-3.6,3.7-8.6,5.9-14.1,5.9c-5.5,0-10.5-2.2-14-5.9c-3.5-3.6-5.8-8.6-5.8-14.1
			C103,252.8,105.3,247.9,108.8,244.3z M132.9,248.3c-2.6-2.6-6.2-4.2-10.1-4.2c-3.8,0-7.4,1.6-10,4.2c-2.6,2.6-4.2,6.1-4.2,10.1
			c0,4,1.6,7.5,4.2,10.1c2.6,2.6,6.1,4.2,10,4.2c3.8,0,7.5-1.6,10.1-4.2c2.5-2.6,4.1-6.1,4.1-10.1
			C137,254.3,135.4,250.8,132.9,248.3z"/>
		<path fill="#FFFFFF" d="M149,277.8v-39l4.3,0.1l19,27.4v-27.4h5.6v39h-4.5l-18.8-27.2v27.2H149z"/>
		<path fill="#FFFFFF" d="M189.3,244.3c3.6-3.6,8.6-5.9,14-5.9c5.5,0,10.5,2.3,14.1,5.9c3.5,3.6,5.8,8.6,5.8,14.1
			c0,5.5-2.3,10.5-5.8,14.1c-3.6,3.7-8.6,5.9-14.1,5.9c-5.5,0-10.5-2.2-14-5.9c-3.5-3.6-5.8-8.6-5.8-14.1
			C183.5,252.8,185.8,247.9,189.3,244.3z M213.4,248.3c-2.6-2.6-6.2-4.2-10.1-4.2c-3.8,0-7.4,1.6-10,4.2c-2.6,2.6-4.2,6.1-4.2,10.1
			c0,4,1.6,7.5,4.2,10.1c2.6,2.6,6.1,4.2,10,4.2c3.8,0,7.5-1.6,10.1-4.2c2.5-2.6,4.1-6.1,4.1-10.1
			C217.5,254.3,215.9,250.8,213.4,248.3z"/>
		<path fill="#FFFFFF" d="M250.8,248.9c-0.8-3.5-4.6-5-8-5c-2.6,0.1-5.5,0.9-7.1,2.9c-0.8,1-1.1,2.3-0.9,3.6c0.3,4,4.7,4.5,8.8,4.9
			c5.3,0.7,12,2.1,13.5,8.3c0.2,0.8,0.3,1.8,0.3,2.6c0,7.5-7.5,11.9-14.5,11.9c-6,0-13.3-3.6-14-10.5l-0.1-1.1l5.7-0.1l0.1,0.8v-0.2
			c0.4,3.6,4.8,5.5,8.4,5.5c4.2,0,8.7-2.3,8.7-6.3c0-0.4-0.1-0.8-0.2-1.3c-0.7-3-4.7-3.5-8.6-3.8c-6.1-0.6-13.2-1.9-13.8-10.1v0.1
			c-0.2-2.6,0.4-5.2,2.1-7.4c2.6-3.4,7.3-5.2,11.8-5.2c6,0,12.2,3.1,13.2,10.2L250.8,248.9z"/>
	</g>
</g>
<g>
	<polygon fill="#FFFFFF" points="278.2,53 248.5,53 190.1,106.2 248.5,162 278.2,162 219.8,106.2 	"/>
	<g>
		<path fill="#FFFFFF" d="M295.6,178.6c-8.4,5.9-18.6,9.4-29.7,9.4h-64c-28.4,0-51.5-23-51.5-51.4v-64c0-28.4,23.1-51.6,51.5-51.6
			h64c12.8,0,24.5,4.7,33.6,12.5l9.7-8.8C297.7,14.3,282.5,8,265.9,8h-64c-35.6,0-64.5,29-64.5,64.6v64c0,35.6,28.9,64.4,64.5,64.4
			h64c14.7,0,28.3-5,39.2-13.3L295.6,178.6z"/>
	</g>
</g>
<g>
	<g>
		<g>
			<path d="M-595.8,627.8c-0.9-2.1-2.2-3.9-3.7-5.5c-3.3-3.4-7.8-5.5-12.9-5.5c-5,0-9.6,2.1-12.9,5.5c-3.3,3.4-5.3,8-5.3,13.1
				c0,5.1,2.1,9.7,5.3,13.1c3.3,3.4,7.8,5.5,12.9,5.5c5,0,9.6-2.1,12.9-5.5c1.5-1.6,2.8-3.3,3.7-5.4h0.9c-0.9,2.3-2.3,4.3-4,6.1
				c-3.5,3.6-8.2,5.7-13.5,5.7c-5.3,0-10-2.2-13.5-5.7c-3.4-3.5-5.6-8.4-5.6-13.8c0-5.3,2.2-10.2,5.6-13.7c3.5-3.6,8.2-5.7,13.5-5.7
				c5.3,0,10,2.2,13.5,5.7c1.7,1.7,3.1,3.8,4,6.1H-595.8z"/>
			<path d="M-612.3,656.1c-5.4,0-10.5-2.2-14.4-6.1c-3.8-3.9-5.9-9.1-5.9-14.6c0-5.4,2.1-10.6,5.9-14.6c3.8-3.9,8.9-6.1,14.4-6.1
				c5.4,0,10.5,2.2,14.4,6.1c1.8,1.9,3.3,4.1,4.3,6.5l0.7,1.7h-3.6l-0.3-0.8c-0.8-1.8-2-3.6-3.4-5.1c-3.2-3.3-7.4-5.1-12-5.1
				s-8.8,1.8-12,5.1c-3.2,3.3-5,7.7-5,12.2c0,4.6,1.8,8.9,5,12.2c3.2,3.3,7.5,5.1,12,5.1s8.8-1.8,12-5.1c1.5-1.6,2.7-3.3,3.4-5
				l0.3-0.8h3.6l-0.7,1.7c-1,2.4-2.4,4.6-4.3,6.5C-601.7,654-606.8,656.1-612.3,656.1z"/>
		</g>
		<g>
			<path d="M-581.8,621.2c3.6-3.7,8.6-5.9,14-5.9c5.5,0,10.5,2.2,14.1,5.9c3.6,3.6,5.8,8.6,5.8,14.1c0,5.5-2.3,10.5-5.8,14.1
				c-3.6,3.7-8.6,5.9-14.1,5.9c-5.5,0-10.5-2.2-14-5.9c-3.6-3.6-5.8-8.6-5.8-14.1C-587.7,629.8-585.4,624.8-581.8,621.2z
				 M-554.3,621.9c-3.5-3.5-8.2-5.7-13.5-5.7c-5.2,0-10,2.2-13.4,5.7c-3.4,3.5-5.6,8.2-5.6,13.5s2.2,10,5.6,13.5
				c3.5,3.5,8.2,5.7,13.4,5.7c5.2,0,10-2.2,13.5-5.7c3.4-3.4,5.5-8.2,5.5-13.5S-550.9,625.3-554.3,621.9z"/>
			<path d="M-567.8,656.6c-5.6,0-11.1-2.3-14.9-6.3c-4-4.1-6.2-9.4-6.2-15c0-5.6,2.2-11,6.2-15c3.9-4,9.3-6.3,14.9-6.3
				c5.7,0,11,2.2,15,6.3c4,4.1,6.2,9.4,6.2,15c0,5.6-2.2,11-6.2,15C-556.8,654.4-562.1,656.6-567.8,656.6z M-567.8,617.4
				c-4.7,0-9.2,1.9-12.5,5.3c-3.4,3.4-5.2,7.9-5.2,12.6c0,4.7,1.8,9.2,5.2,12.6c3.4,3.4,7.8,5.3,12.5,5.3c4.7,0,9.2-1.9,12.6-5.3
				c3.3-3.4,5.2-7.8,5.2-12.6c0-4.7-1.8-9.2-5.2-12.6C-558.6,619.3-563.1,617.4-567.8,617.4z"/>
		</g>
		<g>
			<path d="M-526.5,615.9c25.5,0,25.5,38.9,0,38.9h-13.1c0-13,0-25.9,0-38.9H-526.5z M-526.5,654c24.4,0,24.4-37.2,0-37.2h-12.3
				c0,12.1,0,25.2,0,37.2H-526.5z"/>
			<path d="M-526.5,656.1h-14.4v-41.4h14.4c6.3,0,11.6,2.2,15.3,6.5c3.3,3.8,5.1,8.8,5.1,14.2c0,5.4-1.8,10.4-5.1,14.2
				C-514.9,653.8-520.2,656.1-526.5,656.1z M-537.6,652.7h11c5.3,0,9.7-1.9,12.8-5.4c2.8-3.1,4.3-7.4,4.3-12
				c0-8.4-5.3-17.4-17.1-17.4h-11V652.7z"/>
		</g>
		<g>
			<path d="M-498,654h20.7v0.8h-21.5h-0.1v-38.9h21.5v0.8H-498v18.1h20.1v0.9H-498V654z"/>
			<polygon points="-476,656.1 -500.1,656.1 -500.1,614.7 -476.2,614.7 -476.2,618 -496.7,618 -496.7,633.6 -476.6,633.6 
				-476.6,637 -496.7,637 -496.7,652.7 -476,652.7 			"/>
		</g>
	</g>
	<g>
		<path d="M-852.5,615.9v38.9h-5.6v-38.9H-852.5z M-851.4,633.9l13.6-18h7.1l-14.9,19.3l16.4,19.6h-7.3l-14.9-18V633.9z"/>
		<path d="M-818.4,635.1h6.6c4.7,0,7.1-3.4,7.1-6.8c0-3.3-2.3-6.7-7.1-6.7h-8.6v33.3h-5.6v-39h14.2c8.5,0,12.7,6.2,12.7,12.4
			c0,5.5-3.4,10.7-10.1,11.9l12.3,14.6h-7.3l-14.2-17.1V635.1z"/>
		<path d="M-789.2,621.3c3.6-3.6,8.6-5.9,14-5.9c5.5,0,10.5,2.3,14.1,5.9c3.5,3.6,5.8,8.6,5.8,14.1c0,5.5-2.3,10.5-5.8,14.1
			c-3.6,3.7-8.6,5.9-14.1,5.9c-5.5,0-10.5-2.2-14-5.9c-3.5-3.6-5.8-8.6-5.8-14.1C-795,629.8-792.7,624.9-789.2,621.3z M-765.1,625.3
			c-2.6-2.6-6.2-4.2-10.1-4.2c-3.8,0-7.4,1.6-10,4.2c-2.6,2.6-4.2,6.1-4.2,10.1c0,4,1.6,7.5,4.2,10.1c2.6,2.6,6.1,4.2,10,4.2
			c3.8,0,7.5-1.6,10.1-4.2c2.5-2.6,4.1-6.1,4.1-10.1C-761,631.3-762.6,627.8-765.1,625.3z"/>
		<path d="M-749,654.8v-39l4.3,0.1l19,27.4v-27.4h5.6v39h-4.5l-18.8-27.2v27.2H-749z"/>
		<path d="M-708.7,621.3c3.6-3.6,8.6-5.9,14-5.9c5.5,0,10.5,2.3,14.1,5.9c3.5,3.6,5.8,8.6,5.8,14.1c0,5.5-2.3,10.5-5.8,14.1
			c-3.6,3.7-8.6,5.9-14.1,5.9c-5.5,0-10.5-2.2-14-5.9c-3.5-3.6-5.8-8.6-5.8-14.1C-714.5,629.8-712.2,624.9-708.7,621.3z
			 M-684.6,625.3c-2.6-2.6-6.2-4.2-10.1-4.2c-3.8,0-7.4,1.6-10,4.2c-2.6,2.6-4.2,6.1-4.2,10.1c0,4,1.6,7.5,4.2,10.1
			c2.6,2.6,6.1,4.2,10,4.2c3.8,0,7.5-1.6,10.1-4.2c2.5-2.6,4.1-6.1,4.1-10.1C-680.5,631.3-682.1,627.8-684.6,625.3z"/>
		<path d="M-647.2,625.9c-0.8-3.5-4.6-5-8-5c-2.6,0.1-5.5,0.9-7.1,2.9c-0.8,1-1.1,2.3-0.9,3.6c0.3,4,4.7,4.5,8.8,4.9
			c5.3,0.7,12,2.1,13.5,8.3c0.2,0.8,0.3,1.8,0.3,2.6c0,7.5-7.5,11.9-14.5,11.9c-6,0-13.3-3.6-14-10.5l-0.1-1.1l5.7-0.1l0.1,0.8v-0.2
			c0.4,3.6,4.8,5.5,8.4,5.5c4.2,0,8.7-2.3,8.7-6.3c0-0.4-0.1-0.8-0.2-1.3c-0.7-3-4.7-3.5-8.6-3.8c-6.1-0.6-13.2-1.9-13.8-10.1v0.1
			c-0.2-2.6,0.4-5.2,2.1-7.4c2.6-3.4,7.3-5.2,11.8-5.2c6,0,12.2,3.1,13.2,10.2L-647.2,625.9z"/>
	</g>
</g>
<g>
	<polygon points="-619.8,430 -649.5,430 -707.9,483.2 -649.5,539 -619.8,539 -678.2,483.2 	"/>
	<g>
		<path d="M-602.4,555.6c-8.4,5.9-18.6,9.4-29.7,9.4h-64c-28.4,0-51.5-23-51.5-51.4v-64c0-28.4,23.1-51.6,51.5-51.6h64
			c12.8,0,24.5,4.7,33.6,12.5l9.7-8.8c-11.4-10.4-26.6-16.7-43.2-16.7h-64c-35.6,0-64.5,29-64.5,64.6v64c0,35.6,28.9,64.4,64.5,64.4
			h64c14.7,0,28.3-5,39.2-13.3L-602.4,555.6z"/>
	</g>
</g>
<g>
	<g>
		<g>
			<path d="M299.2,600.8c-0.9-2.1-2.2-3.9-3.7-5.5c-3.3-3.4-7.8-5.5-12.9-5.5s-9.6,2.1-12.9,5.5c-3.3,3.4-5.3,8-5.3,13.1
				c0,5.1,2.1,9.7,5.3,13.1c3.3,3.4,7.8,5.5,12.9,5.5s9.6-2.1,12.9-5.5c1.5-1.6,2.8-3.3,3.7-5.4h0.9c-0.9,2.3-2.3,4.3-4,6.1
				c-3.5,3.6-8.2,5.7-13.5,5.7c-5.3,0-10-2.2-13.5-5.7c-3.4-3.5-5.6-8.4-5.6-13.8c0-5.3,2.2-10.2,5.6-13.7c3.5-3.6,8.2-5.7,13.5-5.7
				c5.3,0,10,2.2,13.5,5.7c1.7,1.7,3.1,3.8,4,6.1H299.2z"/>
			<path d="M282.7,629.1c-5.4,0-10.5-2.2-14.4-6.1c-3.8-3.9-5.9-9.1-5.9-14.6c0-5.4,2.1-10.6,5.9-14.6c3.8-3.9,8.9-6.1,14.4-6.1
				c5.4,0,10.5,2.2,14.4,6.1c1.8,1.9,3.3,4.1,4.3,6.5l0.7,1.7h-3.6l-0.3-0.8c-0.8-1.8-2-3.6-3.4-5.1c-3.2-3.3-7.4-5.1-12-5.1
				s-8.8,1.8-12,5.1c-3.2,3.3-5,7.7-5,12.2c0,4.6,1.8,8.9,5,12.2c3.2,3.3,7.5,5.1,12,5.1s8.8-1.8,12-5.1c1.5-1.6,2.7-3.3,3.4-5
				l0.3-0.8h3.6l-0.7,1.7c-1,2.4-2.4,4.6-4.3,6.5C293.3,627,288.2,629.1,282.7,629.1z"/>
		</g>
		<g>
			<path d="M313.2,594.2c3.6-3.7,8.6-5.9,14-5.9c5.5,0,10.5,2.2,14.1,5.9c3.6,3.6,5.8,8.6,5.8,14.1c0,5.5-2.3,10.5-5.8,14.1
				c-3.6,3.7-8.6,5.9-14.1,5.9c-5.5,0-10.5-2.2-14-5.9c-3.6-3.6-5.8-8.6-5.8-14.1C307.3,602.8,309.6,597.8,313.2,594.2z
				 M340.7,594.9c-3.5-3.5-8.2-5.7-13.5-5.7c-5.2,0-10,2.2-13.4,5.7c-3.4,3.5-5.6,8.2-5.6,13.5s2.2,10,5.6,13.5
				c3.5,3.5,8.2,5.7,13.4,5.7c5.2,0,10-2.2,13.5-5.7c3.4-3.4,5.5-8.2,5.5-13.5S344.1,598.3,340.7,594.9z"/>
			<path d="M327.2,629.6c-5.6,0-11.1-2.3-14.9-6.3c-4-4.1-6.2-9.4-6.2-15c0-5.6,2.2-11,6.2-15c3.9-4,9.3-6.3,14.9-6.3
				c5.7,0,11,2.2,15,6.3c4,4.1,6.2,9.4,6.2,15c0,5.6-2.2,11-6.2,15C338.2,627.4,332.9,629.6,327.2,629.6z M327.2,590.4
				c-4.7,0-9.2,1.9-12.5,5.3c-3.4,3.4-5.2,7.9-5.2,12.6c0,4.7,1.8,9.2,5.2,12.6c3.4,3.4,7.8,5.3,12.5,5.3c4.7,0,9.2-1.9,12.6-5.3
				c3.3-3.4,5.2-7.8,5.2-12.6c0-4.7-1.8-9.2-5.2-12.6C336.4,592.3,331.9,590.4,327.2,590.4z"/>
		</g>
		<g>
			<path d="M368.5,588.9c25.5,0,25.5,38.9,0,38.9h-13.1c0-13,0-25.9,0-38.9H368.5z M368.5,627c24.4,0,24.4-37.2,0-37.2h-12.3
				c0,12.1,0,25.2,0,37.2H368.5z"/>
			<path d="M368.5,629.1h-14.4v-41.4h14.4c6.3,0,11.6,2.2,15.3,6.5c3.3,3.8,5.1,8.8,5.1,14.2c0,5.4-1.8,10.4-5.1,14.2
				C380.1,626.8,374.8,629.1,368.5,629.1z M357.4,625.7h11c5.3,0,9.7-1.9,12.8-5.4c2.8-3.1,4.3-7.4,4.3-12c0-8.4-5.3-17.4-17.1-17.4
				h-11V625.7z"/>
		</g>
		<g>
			<path d="M397,627h20.7v0.8h-21.5h-0.1v-38.9h21.5v0.8H397v18.1h20.1v0.9H397V627z"/>
			<polygon points="419,629.1 394.9,629.1 394.9,587.7 418.8,587.7 418.8,591 398.3,591 398.3,606.6 418.4,606.6 418.4,610 
				398.3,610 398.3,625.7 419,625.7 			"/>
		</g>
	</g>
	<g>
		<path d="M42.5,588.9v38.9H37v-38.9H42.5z M43.6,606.9l13.6-18h7.1l-14.9,19.3l16.4,19.6h-7.3l-14.9-18V606.9z"/>
		<path d="M76.6,608.1h6.6c4.7,0,7.1-3.4,7.1-6.8c0-3.3-2.3-6.7-7.1-6.7h-8.6v33.3H69v-39h14.2c8.5,0,12.7,6.2,12.7,12.4
			c0,5.5-3.4,10.7-10.1,11.9l12.3,14.6h-7.3l-14.2-17.1V608.1z"/>
		<path d="M105.8,594.3c3.6-3.6,8.6-5.9,14-5.9c5.5,0,10.5,2.3,14.1,5.9c3.5,3.6,5.8,8.6,5.8,14.1c0,5.5-2.3,10.5-5.8,14.1
			c-3.6,3.7-8.6,5.9-14.1,5.9c-5.5,0-10.5-2.2-14-5.9c-3.5-3.6-5.8-8.6-5.8-14.1C100,602.8,102.3,597.9,105.8,594.3z M129.9,598.3
			c-2.6-2.6-6.2-4.2-10.1-4.2c-3.8,0-7.4,1.6-10,4.2c-2.6,2.6-4.2,6.1-4.2,10.1c0,4,1.6,7.5,4.2,10.1c2.6,2.6,6.1,4.2,10,4.2
			c3.8,0,7.5-1.6,10.1-4.2c2.5-2.6,4.1-6.1,4.1-10.1C134,604.3,132.4,600.8,129.9,598.3z"/>
		<path d="M146,627.8v-39l4.3,0.1l19,27.4v-27.4h5.6v39h-4.5l-18.8-27.2v27.2H146z"/>
		<path d="M186.3,594.3c3.6-3.6,8.6-5.9,14-5.9c5.5,0,10.5,2.3,14.1,5.9c3.5,3.6,5.8,8.6,5.8,14.1c0,5.5-2.3,10.5-5.8,14.1
			c-3.6,3.7-8.6,5.9-14.1,5.9c-5.5,0-10.5-2.2-14-5.9c-3.5-3.6-5.8-8.6-5.8-14.1C180.5,602.8,182.8,597.9,186.3,594.3z M210.4,598.3
			c-2.6-2.6-6.2-4.2-10.1-4.2c-3.8,0-7.4,1.6-10,4.2c-2.6,2.6-4.2,6.1-4.2,10.1c0,4,1.6,7.5,4.2,10.1c2.6,2.6,6.1,4.2,10,4.2
			c3.8,0,7.5-1.6,10.1-4.2c2.5-2.6,4.1-6.1,4.1-10.1C214.5,604.3,212.9,600.8,210.4,598.3z"/>
		<path d="M247.8,598.9c-0.8-3.5-4.6-5-8-5c-2.6,0.1-5.5,0.9-7.1,2.9c-0.8,1-1.1,2.3-0.9,3.6c0.3,4,4.7,4.5,8.8,4.9
			c5.3,0.7,12,2.1,13.5,8.3c0.2,0.8,0.3,1.8,0.3,2.6c0,7.5-7.5,11.9-14.5,11.9c-6,0-13.3-3.6-14-10.5l-0.1-1.1l5.7-0.1l0.1,0.8v-0.2
			c0.4,3.6,4.8,5.5,8.4,5.5c4.2,0,8.7-2.3,8.7-6.3c0-0.4-0.1-0.8-0.2-1.3c-0.7-3-4.7-3.5-8.6-3.8c-6.1-0.6-13.2-1.9-13.8-10.1v0.1
			c-0.2-2.6,0.4-5.2,2.1-7.4c2.6-3.4,7.3-5.2,11.8-5.2c6,0,12.2,3.1,13.2,10.2L247.8,598.9z"/>
	</g>
</g>
<g>
	<polygon points="275.2,403 245.5,403 187.1,456.2 245.5,512 275.2,512 216.8,456.2 	"/>
	<g>
		<path d="M292.6,528.6c-8.4,5.9-18.6,9.4-29.7,9.4h-64c-28.4,0-51.5-23-51.5-51.4v-64c0-28.4,23.1-51.6,51.5-51.6h64
			c12.8,0,24.5,4.7,33.6,12.5l9.7-8.8c-11.4-10.4-26.6-16.7-43.2-16.7h-64c-35.6,0-64.5,29-64.5,64.6v64c0,35.6,28.9,64.4,64.5,64.4
			h64c14.7,0,28.3-5,39.2-13.3L292.6,528.6z"/>
	</g>
</g>
</svg>
