<?xml version="1.0" encoding="utf-8"?>
<!-- Generator: Adobe Illustrator 16.0.0, SVG Export Plug-In . SVG Version: 6.00 Build 0)  -->
<!DOCTYPE svg PUBLIC "-//W3C//DTD SVG 1.1//EN" "http://www.w3.org/Graphics/SVG/1.1/DTD/svg11.dtd">
<svg version="1.1" id="Calque_1" xmlns="http://www.w3.org/2000/svg" xmlns:xlink="http://www.w3.org/1999/xlink" x="0px" y="0px"
	 width="310px" height="180px" viewBox="0 0 310 180" enable-background="new 0 0 310 180" xml:space="preserve">
<g>
	<path fill="#ECEDEE" d="M281.271,169.365h-104.02c0,0-1.133,3.64-4.752,3.792c-3.62,0.15-3.62,0.15-3.62,0.15H138.18
		c0,0-4.224-0.342-4.903-3.942H30.567H0v5.913h310v-5.913H281.271z M289.785,173.157h-12.444c-0.334,0-0.604-0.271-0.604-0.604
		c0-0.332,0.27-0.604,0.604-0.604h12.444c0.334,0,0.604,0.271,0.604,0.604C290.389,172.887,290.119,173.157,289.785,173.157z"/>
	<polygon fill="#DADBDD" points="8.372,177.738 301.325,177.738 310,174.278 0,174.278 	"/>
	<path fill="#D2D4D6" d="M138.18,173.308h30.699c0,0,0,0,3.62-0.15c3.619-0.152,4.752-3.792,4.752-3.792h-43.974
		C133.956,172.966,138.18,173.308,138.18,173.308z"/>
	<path fill="#D2D4D6" d="M289.785,171.95h-12.444c-0.334,0-0.604,0.271-0.604,0.604c0,0.333,0.27,0.604,0.604,0.604h12.444
		c0.334,0,0.604-0.271,0.604-0.604C290.389,172.222,290.119,171.95,289.785,171.95z"/>
</g>
</svg>
