<?xml version="1.0" encoding="utf-8"?>
<!-- Generator: Adobe Illustrator 16.0.0, SVG Export Plug-In . SVG Version: 6.00 Build 0)  -->
<!DOCTYPE svg PUBLIC "-//W3C//DTD SVG 1.1//EN" "http://www.w3.org/Graphics/SVG/1.1/DTD/svg11.dtd">
<svg version="1.1" id="Calque_1" xmlns="http://www.w3.org/2000/svg" xmlns:xlink="http://www.w3.org/1999/xlink" x="0px" y="0px"
	 width="160px" height="160px" viewBox="0 0 160 160" enable-background="new 0 0 160 160" xml:space="preserve">
<g>
	<g>
		<g>
			<g>
				<g>
					<path fill="#252C3C" d="M80,24.615c33.987,0,61.539,27.552,61.539,61.538c0,33.987-27.552,61.539-61.539,61.539
						c-33.986,0-61.538-27.552-61.538-61.539C18.462,52.167,46.014,24.615,80,24.615L80,24.615z M80,12.308
						c-9.963,0-19.635,1.955-28.748,5.809c-8.795,3.72-16.691,9.043-23.468,15.821c-6.778,6.777-12.102,14.673-15.821,23.468
						c-3.854,9.113-5.809,18.784-5.809,28.748s1.955,19.636,5.809,28.749c3.72,8.794,9.043,16.689,15.821,23.468
						c6.777,6.778,14.673,12.102,23.468,15.821C60.365,158.044,70.037,160,80,160c9.964,0,19.636-1.956,28.748-5.809
						c8.795-3.72,16.691-9.043,23.469-15.821c6.778-6.778,12.101-14.674,15.821-23.468c3.853-9.113,5.808-18.785,5.808-28.749
						s-1.955-19.635-5.808-28.748c-3.721-8.795-9.043-16.69-15.821-23.468c-6.777-6.778-14.674-12.102-23.469-15.821
						C99.636,14.263,89.964,12.308,80,12.308L80,12.308z"/>
				</g>
			</g>
			<g>
				<g>
					<g>
						<polygon fill="#D8D8DA" points="89.231,86.153 80,86.153 80,95.354 80,132.462 87.702,93.823 126.309,86.153 						"/>
					</g>
				</g>
				<g>
					<g>
						<polygon fill="#D8D8DA" points="70.799,86.153 33.692,86.153 72.335,93.883 80,132.462 80,95.354 80,86.153 						"/>
					</g>
				</g>
				<g>
					<g>
						<polygon fill="#D8D8DA" points="87.696,78.457 80,39.846 80,76.923 80,86.153 89.231,86.153 126.309,86.153 						"/>
					</g>
				</g>
				<g>
					<g>
						<polygon fill="#D8D8DA" points="72.276,78.463 33.692,86.153 70.799,86.153 80,86.153 80,76.923 80,39.846 						"/>
					</g>
				</g>
			</g>
			<g>
				<g>
					<rect x="67.693" fill="#252C3C" width="25.357" height="17.247"/>
				</g>
			</g>
			<g>
				<g>
					<g>
						<polygon fill="#D8D8DA" points="83.946,82.207 80,86.153 83.934,90.087 99.796,105.949 86.571,86.14 99.796,66.357 						"/>
					</g>
				</g>
				<g>
					<g>
						<polygon fill="#D8D8DA" points="76.067,90.087 60.205,105.949 80.028,92.734 99.796,105.949 83.934,90.087 80,86.153 						
							"/>
					</g>
				</g>
				<g>
					<g>
						<polygon fill="#D8D8DA" points="80,79.573 60.205,66.358 76.054,82.207 80,86.153 83.946,82.207 99.796,66.357 						"/>
					</g>
				</g>
				<g>
					<g>
						<polygon fill="#D8D8DA" points="73.411,86.167 60.205,105.949 76.067,90.087 80,86.153 76.054,82.207 60.205,66.358 						"/>
					</g>
				</g>
			</g>
		</g>
	</g>
</g>
</svg>
